<?xml version="1.0" encoding="utf-8" standalone="no"?>
<!DOCTYPE svg PUBLIC "-//W3C//DTD SVG 1.1//EN"
  "http://www.w3.org/Graphics/SVG/1.1/DTD/svg11.dtd">
<!-- Created with matplotlib (https://matplotlib.org/) -->
<svg height="864pt" version="1.1" viewBox="0 0 432 864" width="432pt" xmlns="http://www.w3.org/2000/svg" xmlns:xlink="http://www.w3.org/1999/xlink">
 <defs>
  <style type="text/css">
*{stroke-linecap:butt;stroke-linejoin:round;}
  </style>
 </defs>
 <g id="figure_1">
  <g id="patch_1">
   <path d="M 0 864 
L 432 864 
L 432 0 
L 0 0 
z
" style="fill:#ffffff;"/>
  </g>
  <g id="axes_1">
   <g id="patch_2">
    <path d="M 54 295.538824 
L 388.8 295.538824 
L 388.8 103.68 
L 54 103.68 
z
" style="fill:#ffffff;"/>
   </g>
   <g id="matplotlib.axis_1">
    <g id="xtick_1">
     <g id="line2d_1">
      <defs>
       <path d="M 0 0 
L 0 3.5 
" id="m178addf747" style="stroke:#000000;stroke-width:0.8;"/>
      </defs>
      <g>
       <use style="stroke:#000000;stroke-width:0.8;" x="54" xlink:href="#m178addf747" y="295.538824"/>
      </g>
     </g>
     <g id="text_1">
      <!-- 0.00 -->
      <defs>
       <path d="M 31.78125 66.40625 
Q 24.171875 66.40625 20.328125 58.90625 
Q 16.5 51.421875 16.5 36.375 
Q 16.5 21.390625 20.328125 13.890625 
Q 24.171875 6.390625 31.78125 6.390625 
Q 39.453125 6.390625 43.28125 13.890625 
Q 47.125 21.390625 47.125 36.375 
Q 47.125 51.421875 43.28125 58.90625 
Q 39.453125 66.40625 31.78125 66.40625 
z
M 31.78125 74.21875 
Q 44.046875 74.21875 50.515625 64.515625 
Q 56.984375 54.828125 56.984375 36.375 
Q 56.984375 17.96875 50.515625 8.265625 
Q 44.046875 -1.421875 31.78125 -1.421875 
Q 19.53125 -1.421875 13.0625 8.265625 
Q 6.59375 17.96875 6.59375 36.375 
Q 6.59375 54.828125 13.0625 64.515625 
Q 19.53125 74.21875 31.78125 74.21875 
z
" id="DejaVuSans-48"/>
       <path d="M 10.6875 12.40625 
L 21 12.40625 
L 21 0 
L 10.6875 0 
z
" id="DejaVuSans-46"/>
      </defs>
      <g transform="translate(42.867188 310.137261)scale(0.1 -0.1)">
       <use xlink:href="#DejaVuSans-48"/>
       <use x="63.623047" xlink:href="#DejaVuSans-46"/>
       <use x="95.410156" xlink:href="#DejaVuSans-48"/>
       <use x="159.033203" xlink:href="#DejaVuSans-48"/>
      </g>
     </g>
    </g>
    <g id="xtick_2">
     <g id="line2d_2">
      <g>
       <use style="stroke:#000000;stroke-width:0.8;" x="120.96" xlink:href="#m178addf747" y="295.538824"/>
      </g>
     </g>
     <g id="text_2">
      <!-- 0.01 -->
      <defs>
       <path d="M 12.40625 8.296875 
L 28.515625 8.296875 
L 28.515625 63.921875 
L 10.984375 60.40625 
L 10.984375 69.390625 
L 28.421875 72.90625 
L 38.28125 72.90625 
L 38.28125 8.296875 
L 54.390625 8.296875 
L 54.390625 0 
L 12.40625 0 
z
" id="DejaVuSans-49"/>
      </defs>
      <g transform="translate(109.827188 310.137261)scale(0.1 -0.1)">
       <use xlink:href="#DejaVuSans-48"/>
       <use x="63.623047" xlink:href="#DejaVuSans-46"/>
       <use x="95.410156" xlink:href="#DejaVuSans-48"/>
       <use x="159.033203" xlink:href="#DejaVuSans-49"/>
      </g>
     </g>
    </g>
    <g id="xtick_3">
     <g id="line2d_3">
      <g>
       <use style="stroke:#000000;stroke-width:0.8;" x="187.92" xlink:href="#m178addf747" y="295.538824"/>
      </g>
     </g>
     <g id="text_3">
      <!-- 0.02 -->
      <defs>
       <path d="M 19.1875 8.296875 
L 53.609375 8.296875 
L 53.609375 0 
L 7.328125 0 
L 7.328125 8.296875 
Q 12.9375 14.109375 22.625 23.890625 
Q 32.328125 33.6875 34.8125 36.53125 
Q 39.546875 41.84375 41.421875 45.53125 
Q 43.3125 49.21875 43.3125 52.78125 
Q 43.3125 58.59375 39.234375 62.25 
Q 35.15625 65.921875 28.609375 65.921875 
Q 23.96875 65.921875 18.8125 64.3125 
Q 13.671875 62.703125 7.8125 59.421875 
L 7.8125 69.390625 
Q 13.765625 71.78125 18.9375 73 
Q 24.125 74.21875 28.421875 74.21875 
Q 39.75 74.21875 46.484375 68.546875 
Q 53.21875 62.890625 53.21875 53.421875 
Q 53.21875 48.921875 51.53125 44.890625 
Q 49.859375 40.875 45.40625 35.40625 
Q 44.1875 33.984375 37.640625 27.21875 
Q 31.109375 20.453125 19.1875 8.296875 
z
" id="DejaVuSans-50"/>
      </defs>
      <g transform="translate(176.787188 310.137261)scale(0.1 -0.1)">
       <use xlink:href="#DejaVuSans-48"/>
       <use x="63.623047" xlink:href="#DejaVuSans-46"/>
       <use x="95.410156" xlink:href="#DejaVuSans-48"/>
       <use x="159.033203" xlink:href="#DejaVuSans-50"/>
      </g>
     </g>
    </g>
    <g id="xtick_4">
     <g id="line2d_4">
      <g>
       <use style="stroke:#000000;stroke-width:0.8;" x="254.88" xlink:href="#m178addf747" y="295.538824"/>
      </g>
     </g>
     <g id="text_4">
      <!-- 0.03 -->
      <defs>
       <path d="M 40.578125 39.3125 
Q 47.65625 37.796875 51.625 33 
Q 55.609375 28.21875 55.609375 21.1875 
Q 55.609375 10.40625 48.1875 4.484375 
Q 40.765625 -1.421875 27.09375 -1.421875 
Q 22.515625 -1.421875 17.65625 -0.515625 
Q 12.796875 0.390625 7.625 2.203125 
L 7.625 11.71875 
Q 11.71875 9.328125 16.59375 8.109375 
Q 21.484375 6.890625 26.8125 6.890625 
Q 36.078125 6.890625 40.9375 10.546875 
Q 45.796875 14.203125 45.796875 21.1875 
Q 45.796875 27.640625 41.28125 31.265625 
Q 36.765625 34.90625 28.71875 34.90625 
L 20.21875 34.90625 
L 20.21875 43.015625 
L 29.109375 43.015625 
Q 36.375 43.015625 40.234375 45.921875 
Q 44.09375 48.828125 44.09375 54.296875 
Q 44.09375 59.90625 40.109375 62.90625 
Q 36.140625 65.921875 28.71875 65.921875 
Q 24.65625 65.921875 20.015625 65.03125 
Q 15.375 64.15625 9.8125 62.3125 
L 9.8125 71.09375 
Q 15.4375 72.65625 20.34375 73.4375 
Q 25.25 74.21875 29.59375 74.21875 
Q 40.828125 74.21875 47.359375 69.109375 
Q 53.90625 64.015625 53.90625 55.328125 
Q 53.90625 49.265625 50.4375 45.09375 
Q 46.96875 40.921875 40.578125 39.3125 
z
" id="DejaVuSans-51"/>
      </defs>
      <g transform="translate(243.747187 310.137261)scale(0.1 -0.1)">
       <use xlink:href="#DejaVuSans-48"/>
       <use x="63.623047" xlink:href="#DejaVuSans-46"/>
       <use x="95.410156" xlink:href="#DejaVuSans-48"/>
       <use x="159.033203" xlink:href="#DejaVuSans-51"/>
      </g>
     </g>
    </g>
    <g id="xtick_5">
     <g id="line2d_5">
      <g>
       <use style="stroke:#000000;stroke-width:0.8;" x="321.84" xlink:href="#m178addf747" y="295.538824"/>
      </g>
     </g>
     <g id="text_5">
      <!-- 0.04 -->
      <defs>
       <path d="M 37.796875 64.3125 
L 12.890625 25.390625 
L 37.796875 25.390625 
z
M 35.203125 72.90625 
L 47.609375 72.90625 
L 47.609375 25.390625 
L 58.015625 25.390625 
L 58.015625 17.1875 
L 47.609375 17.1875 
L 47.609375 0 
L 37.796875 0 
L 37.796875 17.1875 
L 4.890625 17.1875 
L 4.890625 26.703125 
z
" id="DejaVuSans-52"/>
      </defs>
      <g transform="translate(310.707188 310.137261)scale(0.1 -0.1)">
       <use xlink:href="#DejaVuSans-48"/>
       <use x="63.623047" xlink:href="#DejaVuSans-46"/>
       <use x="95.410156" xlink:href="#DejaVuSans-48"/>
       <use x="159.033203" xlink:href="#DejaVuSans-52"/>
      </g>
     </g>
    </g>
    <g id="xtick_6">
     <g id="line2d_6">
      <g>
       <use style="stroke:#000000;stroke-width:0.8;" x="388.8" xlink:href="#m178addf747" y="295.538824"/>
      </g>
     </g>
     <g id="text_6">
      <!-- 0.05 -->
      <defs>
       <path d="M 10.796875 72.90625 
L 49.515625 72.90625 
L 49.515625 64.59375 
L 19.828125 64.59375 
L 19.828125 46.734375 
Q 21.96875 47.46875 24.109375 47.828125 
Q 26.265625 48.1875 28.421875 48.1875 
Q 40.625 48.1875 47.75 41.5 
Q 54.890625 34.8125 54.890625 23.390625 
Q 54.890625 11.625 47.5625 5.09375 
Q 40.234375 -1.421875 26.90625 -1.421875 
Q 22.3125 -1.421875 17.546875 -0.640625 
Q 12.796875 0.140625 7.71875 1.703125 
L 7.71875 11.625 
Q 12.109375 9.234375 16.796875 8.0625 
Q 21.484375 6.890625 26.703125 6.890625 
Q 35.15625 6.890625 40.078125 11.328125 
Q 45.015625 15.765625 45.015625 23.390625 
Q 45.015625 31 40.078125 35.4375 
Q 35.15625 39.890625 26.703125 39.890625 
Q 22.75 39.890625 18.8125 39.015625 
Q 14.890625 38.140625 10.796875 36.28125 
z
" id="DejaVuSans-53"/>
      </defs>
      <g transform="translate(377.667188 310.137261)scale(0.1 -0.1)">
       <use xlink:href="#DejaVuSans-48"/>
       <use x="63.623047" xlink:href="#DejaVuSans-46"/>
       <use x="95.410156" xlink:href="#DejaVuSans-48"/>
       <use x="159.033203" xlink:href="#DejaVuSans-53"/>
      </g>
     </g>
    </g>
   </g>
   <g id="matplotlib.axis_2">
    <g id="ytick_1">
     <g id="line2d_7">
      <defs>
       <path d="M 0 0 
L -3.5 0 
" id="m1c841eef20" style="stroke:#000000;stroke-width:0.8;"/>
      </defs>
      <g>
       <use style="stroke:#000000;stroke-width:0.8;" x="54" xlink:href="#m1c841eef20" y="295.538824"/>
      </g>
     </g>
     <g id="text_7">
      <!-- 0 -->
      <g transform="translate(40.6375 299.338042)scale(0.1 -0.1)">
       <use xlink:href="#DejaVuSans-48"/>
      </g>
     </g>
    </g>
    <g id="ytick_2">
     <g id="line2d_8">
      <g>
       <use style="stroke:#000000;stroke-width:0.8;" x="54" xlink:href="#m1c841eef20" y="263.562353"/>
      </g>
     </g>
     <g id="text_8">
      <!-- 1 -->
      <g transform="translate(40.6375 267.361572)scale(0.1 -0.1)">
       <use xlink:href="#DejaVuSans-49"/>
      </g>
     </g>
    </g>
    <g id="ytick_3">
     <g id="line2d_9">
      <g>
       <use style="stroke:#000000;stroke-width:0.8;" x="54" xlink:href="#m1c841eef20" y="231.585882"/>
      </g>
     </g>
     <g id="text_9">
      <!-- 2 -->
      <g transform="translate(40.6375 235.385101)scale(0.1 -0.1)">
       <use xlink:href="#DejaVuSans-50"/>
      </g>
     </g>
    </g>
    <g id="ytick_4">
     <g id="line2d_10">
      <g>
       <use style="stroke:#000000;stroke-width:0.8;" x="54" xlink:href="#m1c841eef20" y="199.609412"/>
      </g>
     </g>
     <g id="text_10">
      <!-- 3 -->
      <g transform="translate(40.6375 203.408631)scale(0.1 -0.1)">
       <use xlink:href="#DejaVuSans-51"/>
      </g>
     </g>
    </g>
    <g id="ytick_5">
     <g id="line2d_11">
      <g>
       <use style="stroke:#000000;stroke-width:0.8;" x="54" xlink:href="#m1c841eef20" y="167.632941"/>
      </g>
     </g>
     <g id="text_11">
      <!-- 4 -->
      <g transform="translate(40.6375 171.43216)scale(0.1 -0.1)">
       <use xlink:href="#DejaVuSans-52"/>
      </g>
     </g>
    </g>
    <g id="ytick_6">
     <g id="line2d_12">
      <g>
       <use style="stroke:#000000;stroke-width:0.8;" x="54" xlink:href="#m1c841eef20" y="135.656471"/>
      </g>
     </g>
     <g id="text_12">
      <!-- 5 -->
      <g transform="translate(40.6375 139.455689)scale(0.1 -0.1)">
       <use xlink:href="#DejaVuSans-53"/>
      </g>
     </g>
    </g>
    <g id="ytick_7">
     <g id="line2d_13">
      <g>
       <use style="stroke:#000000;stroke-width:0.8;" x="54" xlink:href="#m1c841eef20" y="103.68"/>
      </g>
     </g>
     <g id="text_13">
      <!-- 6 -->
      <defs>
       <path d="M 33.015625 40.375 
Q 26.375 40.375 22.484375 35.828125 
Q 18.609375 31.296875 18.609375 23.390625 
Q 18.609375 15.53125 22.484375 10.953125 
Q 26.375 6.390625 33.015625 6.390625 
Q 39.65625 6.390625 43.53125 10.953125 
Q 47.40625 15.53125 47.40625 23.390625 
Q 47.40625 31.296875 43.53125 35.828125 
Q 39.65625 40.375 33.015625 40.375 
z
M 52.59375 71.296875 
L 52.59375 62.3125 
Q 48.875 64.0625 45.09375 64.984375 
Q 41.3125 65.921875 37.59375 65.921875 
Q 27.828125 65.921875 22.671875 59.328125 
Q 17.53125 52.734375 16.796875 39.40625 
Q 19.671875 43.65625 24.015625 45.921875 
Q 28.375 48.1875 33.59375 48.1875 
Q 44.578125 48.1875 50.953125 41.515625 
Q 57.328125 34.859375 57.328125 23.390625 
Q 57.328125 12.15625 50.6875 5.359375 
Q 44.046875 -1.421875 33.015625 -1.421875 
Q 20.359375 -1.421875 13.671875 8.265625 
Q 6.984375 17.96875 6.984375 36.375 
Q 6.984375 53.65625 15.1875 63.9375 
Q 23.390625 74.21875 37.203125 74.21875 
Q 40.921875 74.21875 44.703125 73.484375 
Q 48.484375 72.75 52.59375 71.296875 
z
" id="DejaVuSans-54"/>
      </defs>
      <g transform="translate(40.6375 107.479219)scale(0.1 -0.1)">
       <use xlink:href="#DejaVuSans-54"/>
      </g>
     </g>
    </g>
   </g>
   <g id="line2d_14">
    <path clip-path="url(#p215781e884)" d="M 54 191.940343 
L 54.6696 192.542589 
L 55.3392 165.181685 
L 56.0088 153.83389 
L 56.6784 144.613838 
L 57.348 150.506355 
L 58.0176 124.645939 
L 58.6872 131.071946 
L 59.3568 130.016594 
L 60.0264 140.127697 
L 60.696 146.235472 
L 61.3656 144.103413 
L 62.0352 159.024588 
L 62.7048 156.02372 
L 63.3744 189.468358 
L 64.044 178.606469 
L 64.7136 190.507854 
L 65.3832 187.372032 
L 66.0528 202.335109 
L 66.7224 202.528854 
L 67.392 205.371461 
L 68.0616 202.997733 
L 68.7312 211.868726 
L 69.4008 194.662352 
L 70.0704 191.904537 
L 70.74 203.427826 
L 71.4096 188.752753 
L 72.0792 205.388428 
L 72.7488 213.381816 
L 73.4184 213.854564 
L 74.088 220.596687 
L 74.7576 206.963563 
L 75.4272 230.762338 
L 76.0968 245.120005 
L 76.7664 246.644418 
L 77.436 252.480025 
L 78.1056 277.307284 
L 78.7752 276.272719 
L 79.4448 277.073295 
L 80.1144 276.288753 
L 80.784 256.892412 
L 81.4536 262.473 
L 82.1232 252.638556 
L 82.7928 225.628748 
L 83.4624 235.074463 
L 84.132 201.550345 
L 84.8016 196.756885 
L 85.4712 182.307507 
L 86.1408 164.11371 
L 86.8104 135.149611 
L 87.48 126.699601 
L 88.1496 147.371637 
L 88.8192 135.570364 
L 89.4888 136.949372 
L 90.1584 137.050352 
L 90.828 129.676604 
L 91.4976 146.125104 
L 92.1672 155.672717 
L 92.8368 173.078596 
L 93.5064 176.520574 
L 94.176 175.666409 
L 94.8456 178.29773 
L 95.5152 209.052601 
L 96.1848 212.877034 
L 96.8544 214.260289 
L 97.524 211.456978 
L 98.1936 201.70501 
L 98.8632 188.523367 
L 99.5328 188.413293 
L 100.2024 201.625914 
L 100.872 207.971481 
L 101.5416 191.349521 
L 102.2112 184.326026 
L 102.8808 187.070532 
L 103.5504 188.415221 
L 104.22 207.664999 
L 104.8896 209.69822 
L 105.5592 238.308497 
L 106.2288 217.258558 
L 106.8984 257.633759 
L 107.568 254.138843 
L 108.2376 257.50962 
L 108.9072 254.693319 
L 109.5768 277.939878 
L 110.2464 266.546667 
L 110.916 264.708564 
L 111.5856 271.884613 
L 112.2552 253.313875 
L 112.9248 254.359224 
L 113.5944 237.211779 
L 114.264 203.840692 
L 114.9336 207.462976 
L 115.6032 169.607975 
L 116.2728 167.045015 
L 116.9424 156.716341 
L 117.612 130.100553 
L 118.2816 151.382518 
L 118.9512 120.931723 
L 120.2904 145.278781 
L 120.96 119.41508 
L 121.6296 140.408564 
L 122.2992 133.894535 
L 122.9688 169.73825 
L 123.6384 177.214152 
L 124.308 181.630812 
L 124.9776 190.143061 
L 125.6472 195.100972 
L 126.3168 185.795915 
L 126.9864 196.623998 
L 128.3256 205.255079 
L 128.9952 205.720758 
L 129.6648 194.820184 
L 130.3344 210.525327 
L 131.004 193.679507 
L 131.6736 208.396731 
L 132.3432 192.194855 
L 133.0128 191.291919 
L 133.6824 215.914994 
L 134.352 212.899723 
L 135.0216 224.656094 
L 135.6912 223.323495 
L 136.3608 236.611346 
L 137.0304 245.269484 
L 137.7 243.792716 
L 138.3696 248.137849 
L 139.0392 261.566093 
L 139.7088 281.162112 
L 140.3784 277.041181 
L 141.048 259.251714 
L 141.7176 250.528005 
L 142.3872 270.412966 
L 143.0568 249.836605 
L 143.7264 225.099772 
L 144.396 233.462552 
L 145.7352 176.047754 
L 146.4048 172.016135 
L 147.0744 148.835221 
L 147.744 137.128672 
L 148.4136 155.392829 
L 149.0832 129.467431 
L 149.7528 126.669379 
L 150.4224 132.403359 
L 151.092 134.29103 
L 151.7616 139.288932 
L 152.4312 142.015436 
L 153.1008 151.570415 
L 155.1096 194.183411 
L 155.7792 185.920579 
L 156.4488 190.808591 
L 157.1184 214.809587 
L 157.788 190.892938 
L 158.4576 188.334264 
L 159.1272 215.070763 
L 159.7968 197.802679 
L 160.4664 206.039899 
L 161.136 182.168586 
L 161.8056 182.317218 
L 162.4752 197.39256 
L 163.1448 187.268259 
L 163.8144 192.391457 
L 164.484 199.580579 
L 165.1536 216.226039 
L 165.8232 210.396359 
L 166.4928 214.261564 
L 167.1624 224.999171 
L 167.832 245.153674 
L 168.5016 246.196457 
L 169.1712 275.321866 
L 169.8408 251.362419 
L 170.5104 279.550792 
L 171.18 266.283578 
L 171.8496 258.943435 
L 172.5192 253.247664 
L 173.1888 259.401889 
L 174.528 228.499273 
L 175.1976 226.85265 
L 175.8672 195.688076 
L 176.5368 176.426678 
L 177.2064 174.227458 
L 177.876 164.292085 
L 178.5456 149.460256 
L 179.2152 145.71439 
L 179.8848 130.240166 
L 180.5544 138.939881 
L 181.224 116.713209 
L 181.8936 125.190582 
L 182.5632 130.593108 
L 183.2328 151.212608 
L 183.9024 154.934883 
L 184.572 177.547718 
L 185.2416 170.657956 
L 185.9112 181.601673 
L 186.5808 180.322417 
L 187.2504 190.865922 
L 187.92 193.23903 
L 188.5896 197.88219 
L 189.2592 207.682315 
L 189.9288 193.629318 
L 190.5984 195.194982 
L 191.268 185.006826 
L 191.9376 185.487189 
L 192.6072 185.08204 
L 193.2768 185.060029 
L 193.9464 207.369872 
L 194.616 211.391925 
L 195.2856 197.68905 
L 195.9552 216.72879 
L 196.6248 218.792413 
L 197.2944 227.661897 
L 197.964 232.162621 
L 198.6336 260.482031 
L 199.3032 272.320011 
L 199.9728 271.862682 
L 200.6424 275.716387 
L 201.312 284.74363 
L 201.9816 254.905181 
L 202.6512 251.848444 
L 203.3208 256.319569 
L 203.9904 237.074525 
L 204.66 245.391267 
L 205.3296 212.754163 
L 205.9992 201.094612 
L 206.6688 195.570477 
L 207.3384 158.683326 
L 208.008 149.883432 
L 208.6776 158.222951 
L 209.3472 152.602583 
L 210.0168 142.131186 
L 210.6864 119.942654 
L 211.356 140.799612 
L 212.0256 145.763228 
L 212.6952 125.187148 
L 213.3648 131.676824 
L 214.704 169.674665 
L 215.3736 186.363569 
L 216.0432 169.49559 
L 216.7128 175.748739 
L 217.3824 203.902987 
L 218.052 216.352585 
L 218.7216 218.287745 
L 219.3912 217.553244 
L 220.0608 209.627667 
L 220.7304 208.395481 
L 221.4 186.737456 
L 222.0696 201.792759 
L 222.7392 183.203548 
L 223.4088 207.181523 
L 224.0784 189.599006 
L 224.748 206.003015 
L 225.4176 208.703163 
L 226.0872 224.618565 
L 226.7568 214.111956 
L 227.4264 228.28504 
L 228.096 226.997436 
L 228.7656 232.35434 
L 229.4352 239.937038 
L 230.1048 266.22588 
L 230.7744 251.315724 
L 231.444 257.170941 
L 232.1136 253.168537 
L 232.7832 269.297538 
L 233.4528 246.281012 
L 234.1224 249.383347 
L 234.792 254.207034 
L 235.4616 236.334407 
L 236.1312 225.202088 
L 236.8008 186.257455 
L 237.4704 189.255766 
L 238.14 173.347536 
L 238.8096 148.170803 
L 239.4792 147.681916 
L 240.8184 125.525744 
L 241.488 122.753836 
L 242.1576 130.387984 
L 242.8272 125.482502 
L 243.4968 151.432517 
L 244.1664 164.808358 
L 245.5056 181.155219 
L 246.1752 192.940758 
L 246.8448 199.152985 
L 247.5144 202.734728 
L 248.184 183.049319 
L 248.8536 207.442929 
L 249.5232 200.690056 
L 250.1928 191.916875 
L 250.8624 208.633621 
L 251.532 212.287343 
L 252.2016 190.274049 
L 252.8712 208.951753 
L 253.5408 189.598266 
L 254.2104 199.379678 
L 254.88 206.979456 
L 255.5496 198.105764 
L 256.2192 212.553751 
L 256.8888 212.735971 
L 257.5584 220.242637 
L 258.228 240.547885 
L 258.8976 254.782136 
L 259.5672 254.867255 
L 260.2368 262.356155 
L 260.9064 271.660354 
L 261.576 262.510963 
L 262.2456 277.645703 
L 262.9152 273.313331 
L 263.5848 259.941104 
L 264.2544 241.565088 
L 264.924 250.414663 
L 265.5936 243.90027 
L 266.2632 230.950462 
L 266.9328 213.639483 
L 267.6024 176.573181 
L 268.272 171.179056 
L 268.9416 170.514475 
L 269.6112 149.677549 
L 270.2808 123.184092 
L 270.9504 136.130716 
L 271.62 119.138383 
L 272.2896 130.618973 
L 272.9592 125.256901 
L 273.6288 144.81791 
L 274.2984 159.218684 
L 274.968 161.93699 
L 275.6376 150.92246 
L 277.6464 187.040233 
L 278.316 199.935265 
L 278.9856 205.184585 
L 279.6552 193.235788 
L 280.3248 194.986474 
L 280.9944 203.954065 
L 281.664 189.990391 
L 282.3336 206.44821 
L 283.0032 207.023565 
L 283.6728 197.142338 
L 284.3424 199.684438 
L 285.012 198.662012 
L 285.6816 183.246813 
L 286.3512 214.648542 
L 287.0208 217.65071 
L 287.6904 226.82228 
L 288.36 212.389141 
L 289.0296 223.19078 
L 289.6992 258.456346 
L 290.3688 264.925245 
L 291.708 255.446797 
L 292.3776 261.641743 
L 293.0472 283.503413 
L 293.7168 255.941646 
L 294.3864 267.953031 
L 295.056 256.815233 
L 296.3952 217.707421 
L 297.0648 200.699323 
L 298.404 179.764279 
L 299.0736 165.013748 
L 299.7432 141.375847 
L 300.4128 135.637574 
L 301.0824 124.881676 
L 301.752 128.948987 
L 302.4216 139.602592 
L 303.0912 136.297986 
L 303.7608 135.696173 
L 304.4304 150.095806 
L 305.1 141.866624 
L 305.7696 166.419551 
L 306.4392 167.241561 
L 307.1088 166.995898 
L 307.7784 182.494971 
L 308.448 202.849307 
L 309.1176 196.096885 
L 309.7872 213.053647 
L 310.4568 192.147562 
L 311.1264 212.914646 
L 311.796 215.159691 
L 312.4656 194.727915 
L 313.1352 186.562569 
L 313.8048 205.872154 
L 314.4744 186.285506 
L 315.144 200.96805 
L 315.8136 196.199922 
L 316.4832 210.007966 
L 317.1528 220.501593 
L 317.8224 220.333494 
L 319.1616 238.779157 
L 319.8312 242.01393 
L 320.5008 261.688205 
L 321.1704 259.911306 
L 321.84 271.432403 
L 322.5096 277.618214 
L 323.1792 270.726061 
L 323.8488 260.731852 
L 324.5184 252.581609 
L 325.188 240.896847 
L 325.8576 251.915762 
L 327.1968 206.013359 
L 327.8664 208.781794 
L 328.536 174.183372 
L 329.2056 156.420467 
L 329.8752 164.549427 
L 331.2144 135.856859 
L 331.884 147.361863 
L 332.5536 135.066268 
L 333.2232 129.001659 
L 333.8928 129.552764 
L 335.232 157.599519 
L 335.9016 161.166149 
L 336.5712 159.109632 
L 337.2408 164.118477 
L 337.9104 189.683148 
L 338.58 188.342599 
L 339.9192 216.279619 
L 340.5888 193.37986 
L 341.2584 209.351335 
L 341.928 197.269573 
L 342.5976 203.789111 
L 343.2672 203.952116 
L 343.9368 197.566953 
L 344.6064 182.551434 
L 345.276 194.08926 
L 345.9456 187.261963 
L 346.6152 184.712384 
L 347.2848 196.924283 
L 347.9544 206.668066 
L 348.624 207.739219 
L 349.2936 237.202176 
L 349.9632 227.06427 
L 350.6328 246.266079 
L 351.3024 251.407716 
L 351.972 264.867939 
L 352.6416 272.377481 
L 353.3112 284.613305 
L 353.9808 259.454378 
L 355.32 244.674912 
L 355.9896 240.710838 
L 356.6592 221.904973 
L 357.3288 216.69165 
L 357.9984 221.318529 
L 358.668 187.809683 
L 359.3376 163.578912 
L 360.0072 170.438692 
L 360.6768 137.675564 
L 361.3464 149.964361 
L 362.016 133.477831 
L 362.6856 145.647605 
L 363.3552 135.056001 
L 364.0248 138.081505 
L 364.6944 144.480943 
L 365.364 154.18916 
L 366.0336 156.176917 
L 366.7032 154.392762 
L 367.3728 183.939036 
L 368.0424 192.137579 
L 368.712 190.400296 
L 369.3816 185.211394 
L 370.0512 215.378888 
L 370.7208 212.688674 
L 371.3904 212.460564 
L 372.06 189.51484 
L 372.7296 206.504943 
L 373.3992 215.891153 
L 374.0688 182.826921 
L 374.7384 192.345764 
L 375.408 187.077265 
L 376.0776 209.592385 
L 376.7472 208.85648 
L 377.4168 206.774948 
L 378.0864 212.093349 
L 378.756 200.914762 
L 379.4256 209.913784 
L 380.0952 240.246792 
L 380.7648 256.593989 
L 381.4344 236.702904 
L 382.104 270.328021 
L 382.7736 256.913593 
L 383.4432 261.821517 
L 384.7824 282.442265 
L 385.452 260.000014 
L 386.1216 256.319524 
L 386.7912 229.116207 
L 387.4608 235.931756 
L 388.1304 228.978653 
L 388.8 195.387542 
L 389.4696 198.094933 
L 389.4696 198.094933 
" style="fill:none;stroke:#1f77b4;stroke-linecap:square;stroke-width:1.5;"/>
   </g>
   <g id="patch_3">
    <path d="M 54 295.538824 
L 54 103.68 
" style="fill:none;stroke:#000000;stroke-linecap:square;stroke-linejoin:miter;stroke-width:0.8;"/>
   </g>
   <g id="patch_4">
    <path d="M 388.8 295.538824 
L 388.8 103.68 
" style="fill:none;stroke:#000000;stroke-linecap:square;stroke-linejoin:miter;stroke-width:0.8;"/>
   </g>
   <g id="patch_5">
    <path d="M 54 295.538824 
L 388.8 295.538824 
" style="fill:none;stroke:#000000;stroke-linecap:square;stroke-linejoin:miter;stroke-width:0.8;"/>
   </g>
   <g id="patch_6">
    <path d="M 54 103.68 
L 388.8 103.68 
" style="fill:none;stroke:#000000;stroke-linecap:square;stroke-linejoin:miter;stroke-width:0.8;"/>
   </g>
   <g id="text_14">
    <!-- original -->
    <defs>
     <path d="M 30.609375 48.390625 
Q 23.390625 48.390625 19.1875 42.75 
Q 14.984375 37.109375 14.984375 27.296875 
Q 14.984375 17.484375 19.15625 11.84375 
Q 23.34375 6.203125 30.609375 6.203125 
Q 37.796875 6.203125 41.984375 11.859375 
Q 46.1875 17.53125 46.1875 27.296875 
Q 46.1875 37.015625 41.984375 42.703125 
Q 37.796875 48.390625 30.609375 48.390625 
z
M 30.609375 56 
Q 42.328125 56 49.015625 48.375 
Q 55.71875 40.765625 55.71875 27.296875 
Q 55.71875 13.875 49.015625 6.21875 
Q 42.328125 -1.421875 30.609375 -1.421875 
Q 18.84375 -1.421875 12.171875 6.21875 
Q 5.515625 13.875 5.515625 27.296875 
Q 5.515625 40.765625 12.171875 48.375 
Q 18.84375 56 30.609375 56 
z
" id="DejaVuSans-111"/>
     <path d="M 41.109375 46.296875 
Q 39.59375 47.171875 37.8125 47.578125 
Q 36.03125 48 33.890625 48 
Q 26.265625 48 22.1875 43.046875 
Q 18.109375 38.09375 18.109375 28.8125 
L 18.109375 0 
L 9.078125 0 
L 9.078125 54.6875 
L 18.109375 54.6875 
L 18.109375 46.1875 
Q 20.953125 51.171875 25.484375 53.578125 
Q 30.03125 56 36.53125 56 
Q 37.453125 56 38.578125 55.875 
Q 39.703125 55.765625 41.0625 55.515625 
z
" id="DejaVuSans-114"/>
     <path d="M 9.421875 54.6875 
L 18.40625 54.6875 
L 18.40625 0 
L 9.421875 0 
z
M 9.421875 75.984375 
L 18.40625 75.984375 
L 18.40625 64.59375 
L 9.421875 64.59375 
z
" id="DejaVuSans-105"/>
     <path d="M 45.40625 27.984375 
Q 45.40625 37.75 41.375 43.109375 
Q 37.359375 48.484375 30.078125 48.484375 
Q 22.859375 48.484375 18.828125 43.109375 
Q 14.796875 37.75 14.796875 27.984375 
Q 14.796875 18.265625 18.828125 12.890625 
Q 22.859375 7.515625 30.078125 7.515625 
Q 37.359375 7.515625 41.375 12.890625 
Q 45.40625 18.265625 45.40625 27.984375 
z
M 54.390625 6.78125 
Q 54.390625 -7.171875 48.1875 -13.984375 
Q 42 -20.796875 29.203125 -20.796875 
Q 24.46875 -20.796875 20.265625 -20.09375 
Q 16.0625 -19.390625 12.109375 -17.921875 
L 12.109375 -9.1875 
Q 16.0625 -11.328125 19.921875 -12.34375 
Q 23.78125 -13.375 27.78125 -13.375 
Q 36.625 -13.375 41.015625 -8.765625 
Q 45.40625 -4.15625 45.40625 5.171875 
L 45.40625 9.625 
Q 42.625 4.78125 38.28125 2.390625 
Q 33.9375 0 27.875 0 
Q 17.828125 0 11.671875 7.65625 
Q 5.515625 15.328125 5.515625 27.984375 
Q 5.515625 40.671875 11.671875 48.328125 
Q 17.828125 56 27.875 56 
Q 33.9375 56 38.28125 53.609375 
Q 42.625 51.21875 45.40625 46.390625 
L 45.40625 54.6875 
L 54.390625 54.6875 
z
" id="DejaVuSans-103"/>
     <path d="M 54.890625 33.015625 
L 54.890625 0 
L 45.90625 0 
L 45.90625 32.71875 
Q 45.90625 40.484375 42.875 44.328125 
Q 39.84375 48.1875 33.796875 48.1875 
Q 26.515625 48.1875 22.3125 43.546875 
Q 18.109375 38.921875 18.109375 30.90625 
L 18.109375 0 
L 9.078125 0 
L 9.078125 54.6875 
L 18.109375 54.6875 
L 18.109375 46.1875 
Q 21.34375 51.125 25.703125 53.5625 
Q 30.078125 56 35.796875 56 
Q 45.21875 56 50.046875 50.171875 
Q 54.890625 44.34375 54.890625 33.015625 
z
" id="DejaVuSans-110"/>
     <path d="M 34.28125 27.484375 
Q 23.390625 27.484375 19.1875 25 
Q 14.984375 22.515625 14.984375 16.5 
Q 14.984375 11.71875 18.140625 8.90625 
Q 21.296875 6.109375 26.703125 6.109375 
Q 34.1875 6.109375 38.703125 11.40625 
Q 43.21875 16.703125 43.21875 25.484375 
L 43.21875 27.484375 
z
M 52.203125 31.203125 
L 52.203125 0 
L 43.21875 0 
L 43.21875 8.296875 
Q 40.140625 3.328125 35.546875 0.953125 
Q 30.953125 -1.421875 24.3125 -1.421875 
Q 15.921875 -1.421875 10.953125 3.296875 
Q 6 8.015625 6 15.921875 
Q 6 25.140625 12.171875 29.828125 
Q 18.359375 34.515625 30.609375 34.515625 
L 43.21875 34.515625 
L 43.21875 35.40625 
Q 43.21875 41.609375 39.140625 45 
Q 35.0625 48.390625 27.6875 48.390625 
Q 23 48.390625 18.546875 47.265625 
Q 14.109375 46.140625 10.015625 43.890625 
L 10.015625 52.203125 
Q 14.9375 54.109375 19.578125 55.046875 
Q 24.21875 56 28.609375 56 
Q 40.484375 56 46.34375 49.84375 
Q 52.203125 43.703125 52.203125 31.203125 
z
" id="DejaVuSans-97"/>
     <path d="M 9.421875 75.984375 
L 18.40625 75.984375 
L 18.40625 0 
L 9.421875 0 
z
" id="DejaVuSans-108"/>
    </defs>
    <g transform="translate(198.973125 97.68)scale(0.12 -0.12)">
     <use xlink:href="#DejaVuSans-111"/>
     <use x="61.181641" xlink:href="#DejaVuSans-114"/>
     <use x="102.294922" xlink:href="#DejaVuSans-105"/>
     <use x="130.078125" xlink:href="#DejaVuSans-103"/>
     <use x="193.554688" xlink:href="#DejaVuSans-105"/>
     <use x="221.337891" xlink:href="#DejaVuSans-110"/>
     <use x="284.716797" xlink:href="#DejaVuSans-97"/>
     <use x="345.996094" xlink:href="#DejaVuSans-108"/>
    </g>
   </g>
  </g>
  <g id="axes_2">
   <g id="patch_7">
    <path d="M 54 525.769412 
L 388.8 525.769412 
L 388.8 333.910588 
L 54 333.910588 
z
" style="fill:#ffffff;"/>
   </g>
   <g id="matplotlib.axis_3">
    <g id="xtick_7">
     <g id="line2d_15">
      <g>
       <use style="stroke:#000000;stroke-width:0.8;" x="54" xlink:href="#m178addf747" y="525.769412"/>
      </g>
     </g>
     <g id="text_15">
      <!-- 0.00 -->
      <g transform="translate(42.867188 540.367849)scale(0.1 -0.1)">
       <use xlink:href="#DejaVuSans-48"/>
       <use x="63.623047" xlink:href="#DejaVuSans-46"/>
       <use x="95.410156" xlink:href="#DejaVuSans-48"/>
       <use x="159.033203" xlink:href="#DejaVuSans-48"/>
      </g>
     </g>
    </g>
    <g id="xtick_8">
     <g id="line2d_16">
      <g>
       <use style="stroke:#000000;stroke-width:0.8;" x="120.96" xlink:href="#m178addf747" y="525.769412"/>
      </g>
     </g>
     <g id="text_16">
      <!-- 0.01 -->
      <g transform="translate(109.827188 540.367849)scale(0.1 -0.1)">
       <use xlink:href="#DejaVuSans-48"/>
       <use x="63.623047" xlink:href="#DejaVuSans-46"/>
       <use x="95.410156" xlink:href="#DejaVuSans-48"/>
       <use x="159.033203" xlink:href="#DejaVuSans-49"/>
      </g>
     </g>
    </g>
    <g id="xtick_9">
     <g id="line2d_17">
      <g>
       <use style="stroke:#000000;stroke-width:0.8;" x="187.92" xlink:href="#m178addf747" y="525.769412"/>
      </g>
     </g>
     <g id="text_17">
      <!-- 0.02 -->
      <g transform="translate(176.787188 540.367849)scale(0.1 -0.1)">
       <use xlink:href="#DejaVuSans-48"/>
       <use x="63.623047" xlink:href="#DejaVuSans-46"/>
       <use x="95.410156" xlink:href="#DejaVuSans-48"/>
       <use x="159.033203" xlink:href="#DejaVuSans-50"/>
      </g>
     </g>
    </g>
    <g id="xtick_10">
     <g id="line2d_18">
      <g>
       <use style="stroke:#000000;stroke-width:0.8;" x="254.88" xlink:href="#m178addf747" y="525.769412"/>
      </g>
     </g>
     <g id="text_18">
      <!-- 0.03 -->
      <g transform="translate(243.747187 540.367849)scale(0.1 -0.1)">
       <use xlink:href="#DejaVuSans-48"/>
       <use x="63.623047" xlink:href="#DejaVuSans-46"/>
       <use x="95.410156" xlink:href="#DejaVuSans-48"/>
       <use x="159.033203" xlink:href="#DejaVuSans-51"/>
      </g>
     </g>
    </g>
    <g id="xtick_11">
     <g id="line2d_19">
      <g>
       <use style="stroke:#000000;stroke-width:0.8;" x="321.84" xlink:href="#m178addf747" y="525.769412"/>
      </g>
     </g>
     <g id="text_19">
      <!-- 0.04 -->
      <g transform="translate(310.707188 540.367849)scale(0.1 -0.1)">
       <use xlink:href="#DejaVuSans-48"/>
       <use x="63.623047" xlink:href="#DejaVuSans-46"/>
       <use x="95.410156" xlink:href="#DejaVuSans-48"/>
       <use x="159.033203" xlink:href="#DejaVuSans-52"/>
      </g>
     </g>
    </g>
    <g id="xtick_12">
     <g id="line2d_20">
      <g>
       <use style="stroke:#000000;stroke-width:0.8;" x="388.8" xlink:href="#m178addf747" y="525.769412"/>
      </g>
     </g>
     <g id="text_20">
      <!-- 0.05 -->
      <g transform="translate(377.667188 540.367849)scale(0.1 -0.1)">
       <use xlink:href="#DejaVuSans-48"/>
       <use x="63.623047" xlink:href="#DejaVuSans-46"/>
       <use x="95.410156" xlink:href="#DejaVuSans-48"/>
       <use x="159.033203" xlink:href="#DejaVuSans-53"/>
      </g>
     </g>
    </g>
   </g>
   <g id="matplotlib.axis_4">
    <g id="ytick_8">
     <g id="line2d_21">
      <g>
       <use style="stroke:#000000;stroke-width:0.8;" x="54" xlink:href="#m1c841eef20" y="525.769412"/>
      </g>
     </g>
     <g id="text_21">
      <!-- 0 -->
      <g transform="translate(40.6375 529.568631)scale(0.1 -0.1)">
       <use xlink:href="#DejaVuSans-48"/>
      </g>
     </g>
    </g>
    <g id="ytick_9">
     <g id="line2d_22">
      <g>
       <use style="stroke:#000000;stroke-width:0.8;" x="54" xlink:href="#m1c841eef20" y="493.792941"/>
      </g>
     </g>
     <g id="text_22">
      <!-- 1 -->
      <g transform="translate(40.6375 497.59216)scale(0.1 -0.1)">
       <use xlink:href="#DejaVuSans-49"/>
      </g>
     </g>
    </g>
    <g id="ytick_10">
     <g id="line2d_23">
      <g>
       <use style="stroke:#000000;stroke-width:0.8;" x="54" xlink:href="#m1c841eef20" y="461.816471"/>
      </g>
     </g>
     <g id="text_23">
      <!-- 2 -->
      <g transform="translate(40.6375 465.615689)scale(0.1 -0.1)">
       <use xlink:href="#DejaVuSans-50"/>
      </g>
     </g>
    </g>
    <g id="ytick_11">
     <g id="line2d_24">
      <g>
       <use style="stroke:#000000;stroke-width:0.8;" x="54" xlink:href="#m1c841eef20" y="429.84"/>
      </g>
     </g>
     <g id="text_24">
      <!-- 3 -->
      <g transform="translate(40.6375 433.639219)scale(0.1 -0.1)">
       <use xlink:href="#DejaVuSans-51"/>
      </g>
     </g>
    </g>
    <g id="ytick_12">
     <g id="line2d_25">
      <g>
       <use style="stroke:#000000;stroke-width:0.8;" x="54" xlink:href="#m1c841eef20" y="397.863529"/>
      </g>
     </g>
     <g id="text_25">
      <!-- 4 -->
      <g transform="translate(40.6375 401.662748)scale(0.1 -0.1)">
       <use xlink:href="#DejaVuSans-52"/>
      </g>
     </g>
    </g>
    <g id="ytick_13">
     <g id="line2d_26">
      <g>
       <use style="stroke:#000000;stroke-width:0.8;" x="54" xlink:href="#m1c841eef20" y="365.887059"/>
      </g>
     </g>
     <g id="text_26">
      <!-- 5 -->
      <g transform="translate(40.6375 369.686278)scale(0.1 -0.1)">
       <use xlink:href="#DejaVuSans-53"/>
      </g>
     </g>
    </g>
    <g id="ytick_14">
     <g id="line2d_27">
      <g>
       <use style="stroke:#000000;stroke-width:0.8;" x="54" xlink:href="#m1c841eef20" y="333.910588"/>
      </g>
     </g>
     <g id="text_27">
      <!-- 6 -->
      <g transform="translate(40.6375 337.709807)scale(0.1 -0.1)">
       <use xlink:href="#DejaVuSans-54"/>
      </g>
     </g>
    </g>
   </g>
   <g id="line2d_28">
    <path clip-path="url(#pb6eef8ce4a)" d="M 54 408.32 
L 54.6696 413.587559 
L 55.3392 405.52358 
L 56.6784 374.591363 
L 57.348 366.30274 
L 58.0176 363.587675 
L 58.6872 362.973736 
L 59.3568 363.276104 
L 60.0264 365.90839 
L 60.696 371.778612 
L 62.7048 395.870212 
L 64.044 413.866659 
L 64.7136 420.720607 
L 65.3832 424.338877 
L 66.0528 426.703716 
L 66.7224 430.68762 
L 67.392 436.090565 
L 68.0616 439.017268 
L 68.7312 436.08088 
L 69.4008 428.83754 
L 70.0704 423.081911 
L 70.74 423.462843 
L 72.7488 440.44282 
L 73.4184 442.690547 
L 74.088 445.498509 
L 74.7576 450.527342 
L 75.4272 457.745351 
L 76.0968 466.946811 
L 78.1056 501.99551 
L 78.7752 507.573412 
L 79.4448 506.869055 
L 80.1144 502.155143 
L 80.784 496.020206 
L 81.4536 488.605897 
L 82.1232 478.47612 
L 84.8016 427.660741 
L 85.4712 410.098778 
L 86.8104 370.832186 
L 87.48 363.220443 
L 88.1496 365.822858 
L 88.8192 370.490023 
L 89.4888 369.505242 
L 90.1584 364.067179 
L 90.828 363.012468 
L 91.4976 372.646136 
L 92.1672 389.04578 
L 92.8368 401.90119 
L 93.5064 405.871559 
L 94.176 406.524126 
L 94.8456 413.765348 
L 96.1848 445.846485 
L 96.8544 449.966583 
L 97.524 440.190217 
L 98.1936 426.254439 
L 98.8632 419.993817 
L 99.5328 424.167528 
L 100.2024 431.174355 
L 100.872 431.920706 
L 101.5416 424.890339 
L 102.2112 416.644535 
L 102.8808 414.791374 
L 103.5504 421.510912 
L 105.5592 456.689634 
L 106.8984 475.165844 
L 107.568 483.123574 
L 108.2376 489.540053 
L 108.9072 494.164545 
L 109.5768 497.171164 
L 110.2464 498.768206 
L 110.916 498.83523 
L 111.5856 496.642762 
L 112.2552 490.789082 
L 112.9248 479.861145 
L 113.5944 463.79109 
L 115.6032 408.950584 
L 116.9424 381.981614 
L 117.612 371.793065 
L 118.2816 365.749362 
L 118.9512 364.113267 
L 119.6208 364.303774 
L 120.2904 363.23865 
L 120.96 361.352668 
L 121.6296 363.303748 
L 122.2992 373.489617 
L 123.6384 407.747512 
L 124.308 417.753574 
L 124.9776 419.786508 
L 125.6472 419.029478 
L 126.3168 420.990262 
L 127.656 431.747101 
L 128.3256 434.01384 
L 128.9952 433.58876 
L 129.6648 432.774885 
L 130.3344 432.483909 
L 131.004 431.556942 
L 132.3432 427.290016 
L 133.0128 428.882717 
L 133.6824 435.462709 
L 135.0216 454.32439 
L 135.6912 460.609507 
L 137.0304 468.496546 
L 137.7 475.09758 
L 139.0392 495.111278 
L 139.7088 502.248747 
L 140.3784 503.073258 
L 141.048 497.896671 
L 142.3872 483.972574 
L 143.0568 478.666048 
L 143.7264 470.277424 
L 144.396 454.856674 
L 145.7352 410.883848 
L 146.4048 393.810642 
L 147.0744 383.423155 
L 148.4136 370.611739 
L 149.0832 364.62355 
L 149.7528 360.895183 
L 150.4224 360.806916 
L 151.092 363.601985 
L 151.7616 367.948342 
L 152.4312 373.992616 
L 153.1008 383.041424 
L 155.1096 418.755423 
L 155.7792 424.539306 
L 156.4488 426.436286 
L 157.1184 426.939616 
L 157.788 428.202284 
L 159.1272 432.778041 
L 159.7968 432.477761 
L 160.4664 428.483335 
L 161.8056 416.384968 
L 162.4752 415.360023 
L 163.1448 419.805128 
L 164.484 433.72086 
L 165.8232 441.471925 
L 166.4928 447.494434 
L 167.1624 457.435279 
L 168.5016 482.783639 
L 169.1712 492.906564 
L 169.8408 498.705761 
L 170.5104 499.519412 
L 171.18 496.243011 
L 172.5192 486.904549 
L 173.1888 483.028171 
L 173.8584 476.724303 
L 174.528 464.88408 
L 176.5368 412.301518 
L 177.2064 400.47385 
L 179.8848 365.99223 
L 180.5544 358.559062 
L 181.224 353.962762 
L 181.8936 354.60651 
L 182.5632 362.365915 
L 184.572 401.936014 
L 185.2416 406.697866 
L 185.9112 408.495293 
L 186.5808 411.864882 
L 188.5896 430.764359 
L 189.2592 431.56374 
L 189.9288 428.665922 
L 191.9376 413.313435 
L 192.6072 414.662235 
L 193.2768 421.777049 
L 193.9464 431.128518 
L 194.616 437.747406 
L 195.2856 439.944702 
L 195.9552 441.048522 
L 196.6248 446.050023 
L 197.2944 456.864594 
L 199.3032 498.143993 
L 199.9728 506.834206 
L 200.6424 509.503246 
L 201.312 504.456926 
L 202.6512 483.399716 
L 203.3208 477.770713 
L 203.9904 475.013149 
L 204.66 468.200755 
L 205.3296 452.641178 
L 206.6688 411.170472 
L 207.3384 397.682248 
L 208.6776 382.282484 
L 209.3472 375.355106 
L 210.0168 370.343362 
L 212.0256 362.528257 
L 212.6952 361.482644 
L 213.3648 367.832044 
L 214.704 397.383024 
L 215.3736 406.361292 
L 216.0432 409.06645 
L 216.7128 413.318347 
L 217.3824 425.465032 
L 218.052 442.206652 
L 218.7216 453.131389 
L 219.3912 451.350822 
L 220.7304 429.583817 
L 221.4 425.141461 
L 222.7392 425.272485 
L 223.4088 424.533504 
L 224.0784 426.511042 
L 224.748 433.458683 
L 225.4176 442.695737 
L 226.0872 449.288159 
L 226.7568 451.52832 
L 227.4264 452.595669 
L 228.096 456.860416 
L 228.7656 465.442959 
L 229.4352 475.633178 
L 230.1048 483.793531 
L 230.7744 488.079986 
L 231.444 488.8409 
L 232.1136 487.594941 
L 232.7832 486.023883 
L 233.4528 485.016803 
L 234.1224 483.580092 
L 234.792 478.729799 
L 235.4616 467.516776 
L 236.8008 429.804292 
L 237.4704 411.795798 
L 238.14 397.979701 
L 240.1488 365.031399 
L 240.8184 356.488078 
L 241.488 353.093603 
L 242.1576 356.057364 
L 242.8272 364.730332 
L 244.1664 391.646661 
L 244.836 405.033994 
L 245.5056 415.518438 
L 246.1752 422.437575 
L 246.8448 426.328748 
L 247.5144 427.961541 
L 248.184 427.937896 
L 248.8536 427.364349 
L 249.5232 428.097167 
L 250.1928 431.207229 
L 250.8624 435.097877 
L 251.532 436.270962 
L 252.2016 432.991717 
L 252.8712 427.893165 
L 253.5408 425.804747 
L 254.2104 428.629939 
L 254.88 433.337379 
L 255.5496 435.983777 
L 256.2192 437.193605 
L 256.8888 442.080849 
L 257.5584 454.07586 
L 258.228 469.977943 
L 258.8976 482.661702 
L 259.5672 488.63108 
L 260.2368 491.329498 
L 260.9064 496.029857 
L 261.576 502.567796 
L 262.2456 505.092652 
L 262.9152 499.381834 
L 263.5848 488.634216 
L 264.2544 480.198637 
L 265.5936 472.944415 
L 266.2632 460.937117 
L 268.272 400.231291 
L 270.2808 368.541884 
L 270.9504 356.090299 
L 271.62 350.054919 
L 272.2896 354.086617 
L 273.6288 376.918841 
L 274.2984 384.213085 
L 274.968 386.895819 
L 275.6376 388.363726 
L 276.3072 392.824485 
L 276.9768 402.572745 
L 278.316 428.453106 
L 278.9856 433.858628 
L 279.6552 431.046813 
L 280.3248 425.021703 
L 280.9944 423.196946 
L 281.664 428.346407 
L 282.3336 435.601716 
L 283.0032 437.344937 
L 283.6728 431.38572 
L 284.3424 423.677999 
L 285.012 422.384568 
L 285.6816 429.592375 
L 286.3512 439.673186 
L 287.0208 445.927002 
L 287.6904 447.983392 
L 288.36 451.77918 
L 289.0296 462.363826 
L 289.6992 477.700705 
L 290.3688 490.312511 
L 291.0384 494.856321 
L 291.708 493.336249 
L 292.3776 492.425964 
L 293.0472 495.910612 
L 293.7168 500.299698 
L 294.3864 498.130186 
L 295.056 485.43467 
L 296.3952 446.60534 
L 297.0648 432.712987 
L 297.7344 422.089415 
L 298.404 409.41901 
L 299.7432 374.661566 
L 300.4128 362.368837 
L 301.0824 358.553789 
L 301.752 360.858451 
L 302.4216 364.612941 
L 303.7608 370.051924 
L 304.4304 374.558949 
L 305.7696 388.275719 
L 307.1088 404.351824 
L 308.448 424.429157 
L 309.1176 431.863569 
L 309.7872 435.646611 
L 310.4568 436.857173 
L 311.1264 436.874226 
L 311.796 435.536303 
L 312.4656 431.895127 
L 313.1352 426.583137 
L 313.8048 422.470742 
L 314.4744 422.396422 
L 315.144 426.593994 
L 317.1528 445.897369 
L 319.8312 475.723452 
L 321.84 503.287201 
L 322.5096 505.645961 
L 323.1792 500.374324 
L 324.5184 482.661454 
L 325.8576 472.107768 
L 326.5272 462.190018 
L 327.1968 446.086095 
L 328.536 408.065306 
L 329.2056 393.986576 
L 329.8752 385.061664 
L 330.5448 379.856681 
L 331.2144 375.689281 
L 333.2232 360.396744 
L 333.8928 363.399794 
L 335.9016 390.692081 
L 336.5712 393.486304 
L 337.2408 398.042557 
L 337.9104 409.154198 
L 338.58 424.365587 
L 339.2496 435.708577 
L 339.9192 437.914779 
L 340.5888 433.79296 
L 341.2584 430.611004 
L 341.928 431.902481 
L 342.5976 434.303651 
L 343.2672 432.5936 
L 344.6064 419.691078 
L 345.276 416.905605 
L 345.9456 417.76738 
L 346.6152 420.311503 
L 347.2848 424.760059 
L 347.9544 433.198235 
L 349.2936 457.646918 
L 349.9632 466.211673 
L 350.6328 472.619826 
L 351.3024 481.674136 
L 352.6416 505.892181 
L 353.3112 507.356074 
L 353.9808 497.338823 
L 354.6504 482.468567 
L 355.32 471.128434 
L 355.9896 465.54653 
L 356.6592 461.030123 
L 357.3288 452.049675 
L 357.9984 437.581377 
L 359.3376 404.012958 
L 360.0072 389.401861 
L 360.6768 377.907759 
L 361.3464 371.158991 
L 362.016 369.44224 
L 362.6856 370.299809 
L 363.3552 370.583942 
L 364.0248 370.07255 
L 364.6944 371.83872 
L 365.364 378.400646 
L 366.7032 398.075964 
L 368.712 422.438242 
L 369.3816 431.572311 
L 370.0512 437.082671 
L 370.7208 437.865443 
L 371.3904 436.702371 
L 372.06 436.334877 
L 372.7296 435.56505 
L 373.3992 431.177003 
L 374.0688 423.697544 
L 374.7384 419.093846 
L 375.408 422.898302 
L 376.0776 433.138028 
L 376.7472 441.164249 
L 377.4168 440.680694 
L 378.0864 435.138711 
L 378.756 434.733778 
L 379.4256 445.815451 
L 380.7648 479.551309 
L 381.4344 485.771409 
L 382.104 486.1763 
L 382.7736 488.534559 
L 384.1128 504.091595 
L 384.7824 505.067384 
L 385.452 496.197505 
L 386.7912 468.487217 
L 388.8 440.520157 
L 389.4696 423.691968 
L 389.4696 423.691968 
" style="fill:none;stroke:#1f77b4;stroke-linecap:square;stroke-width:1.5;"/>
   </g>
   <g id="patch_8">
    <path d="M 54 525.769412 
L 54 333.910588 
" style="fill:none;stroke:#000000;stroke-linecap:square;stroke-linejoin:miter;stroke-width:0.8;"/>
   </g>
   <g id="patch_9">
    <path d="M 388.8 525.769412 
L 388.8 333.910588 
" style="fill:none;stroke:#000000;stroke-linecap:square;stroke-linejoin:miter;stroke-width:0.8;"/>
   </g>
   <g id="patch_10">
    <path d="M 54 525.769412 
L 388.8 525.769412 
" style="fill:none;stroke:#000000;stroke-linecap:square;stroke-linejoin:miter;stroke-width:0.8;"/>
   </g>
   <g id="patch_11">
    <path d="M 54 333.910588 
L 388.8 333.910588 
" style="fill:none;stroke:#000000;stroke-linecap:square;stroke-linejoin:miter;stroke-width:0.8;"/>
   </g>
   <g id="text_28">
    <!-- 2000 or more cut -->
    <defs>
     <path id="DejaVuSans-32"/>
     <path d="M 52 44.1875 
Q 55.375 50.25 60.0625 53.125 
Q 64.75 56 71.09375 56 
Q 79.640625 56 84.28125 50.015625 
Q 88.921875 44.046875 88.921875 33.015625 
L 88.921875 0 
L 79.890625 0 
L 79.890625 32.71875 
Q 79.890625 40.578125 77.09375 44.375 
Q 74.3125 48.1875 68.609375 48.1875 
Q 61.625 48.1875 57.5625 43.546875 
Q 53.515625 38.921875 53.515625 30.90625 
L 53.515625 0 
L 44.484375 0 
L 44.484375 32.71875 
Q 44.484375 40.625 41.703125 44.40625 
Q 38.921875 48.1875 33.109375 48.1875 
Q 26.21875 48.1875 22.15625 43.53125 
Q 18.109375 38.875 18.109375 30.90625 
L 18.109375 0 
L 9.078125 0 
L 9.078125 54.6875 
L 18.109375 54.6875 
L 18.109375 46.1875 
Q 21.1875 51.21875 25.484375 53.609375 
Q 29.78125 56 35.6875 56 
Q 41.65625 56 45.828125 52.96875 
Q 50 49.953125 52 44.1875 
z
" id="DejaVuSans-109"/>
     <path d="M 56.203125 29.59375 
L 56.203125 25.203125 
L 14.890625 25.203125 
Q 15.484375 15.921875 20.484375 11.0625 
Q 25.484375 6.203125 34.421875 6.203125 
Q 39.59375 6.203125 44.453125 7.46875 
Q 49.3125 8.734375 54.109375 11.28125 
L 54.109375 2.78125 
Q 49.265625 0.734375 44.1875 -0.34375 
Q 39.109375 -1.421875 33.890625 -1.421875 
Q 20.796875 -1.421875 13.15625 6.1875 
Q 5.515625 13.8125 5.515625 26.8125 
Q 5.515625 40.234375 12.765625 48.109375 
Q 20.015625 56 32.328125 56 
Q 43.359375 56 49.78125 48.890625 
Q 56.203125 41.796875 56.203125 29.59375 
z
M 47.21875 32.234375 
Q 47.125 39.59375 43.09375 43.984375 
Q 39.0625 48.390625 32.421875 48.390625 
Q 24.90625 48.390625 20.390625 44.140625 
Q 15.875 39.890625 15.1875 32.171875 
z
" id="DejaVuSans-101"/>
     <path d="M 48.78125 52.59375 
L 48.78125 44.1875 
Q 44.96875 46.296875 41.140625 47.34375 
Q 37.3125 48.390625 33.40625 48.390625 
Q 24.65625 48.390625 19.8125 42.84375 
Q 14.984375 37.3125 14.984375 27.296875 
Q 14.984375 17.28125 19.8125 11.734375 
Q 24.65625 6.203125 33.40625 6.203125 
Q 37.3125 6.203125 41.140625 7.25 
Q 44.96875 8.296875 48.78125 10.40625 
L 48.78125 2.09375 
Q 45.015625 0.34375 40.984375 -0.53125 
Q 36.96875 -1.421875 32.421875 -1.421875 
Q 20.0625 -1.421875 12.78125 6.34375 
Q 5.515625 14.109375 5.515625 27.296875 
Q 5.515625 40.671875 12.859375 48.328125 
Q 20.21875 56 33.015625 56 
Q 37.15625 56 41.109375 55.140625 
Q 45.0625 54.296875 48.78125 52.59375 
z
" id="DejaVuSans-99"/>
     <path d="M 8.5 21.578125 
L 8.5 54.6875 
L 17.484375 54.6875 
L 17.484375 21.921875 
Q 17.484375 14.15625 20.5 10.265625 
Q 23.53125 6.390625 29.59375 6.390625 
Q 36.859375 6.390625 41.078125 11.03125 
Q 45.3125 15.671875 45.3125 23.6875 
L 45.3125 54.6875 
L 54.296875 54.6875 
L 54.296875 0 
L 45.3125 0 
L 45.3125 8.40625 
Q 42.046875 3.421875 37.71875 1 
Q 33.40625 -1.421875 27.6875 -1.421875 
Q 18.265625 -1.421875 13.375 4.4375 
Q 8.5 10.296875 8.5 21.578125 
z
M 31.109375 56 
z
" id="DejaVuSans-117"/>
     <path d="M 18.3125 70.21875 
L 18.3125 54.6875 
L 36.8125 54.6875 
L 36.8125 47.703125 
L 18.3125 47.703125 
L 18.3125 18.015625 
Q 18.3125 11.328125 20.140625 9.421875 
Q 21.96875 7.515625 27.59375 7.515625 
L 36.8125 7.515625 
L 36.8125 0 
L 27.59375 0 
Q 17.1875 0 13.234375 3.875 
Q 9.28125 7.765625 9.28125 18.015625 
L 9.28125 47.703125 
L 2.6875 47.703125 
L 2.6875 54.6875 
L 9.28125 54.6875 
L 9.28125 70.21875 
z
" id="DejaVuSans-116"/>
    </defs>
    <g transform="translate(169.27875 327.910588)scale(0.12 -0.12)">
     <use xlink:href="#DejaVuSans-50"/>
     <use x="63.623047" xlink:href="#DejaVuSans-48"/>
     <use x="127.246094" xlink:href="#DejaVuSans-48"/>
     <use x="190.869141" xlink:href="#DejaVuSans-48"/>
     <use x="254.492188" xlink:href="#DejaVuSans-32"/>
     <use x="286.279297" xlink:href="#DejaVuSans-111"/>
     <use x="347.460938" xlink:href="#DejaVuSans-114"/>
     <use x="388.574219" xlink:href="#DejaVuSans-32"/>
     <use x="420.361328" xlink:href="#DejaVuSans-109"/>
     <use x="517.773438" xlink:href="#DejaVuSans-111"/>
     <use x="578.955078" xlink:href="#DejaVuSans-114"/>
     <use x="617.818359" xlink:href="#DejaVuSans-101"/>
     <use x="679.341797" xlink:href="#DejaVuSans-32"/>
     <use x="711.128906" xlink:href="#DejaVuSans-99"/>
     <use x="766.109375" xlink:href="#DejaVuSans-117"/>
     <use x="829.488281" xlink:href="#DejaVuSans-116"/>
    </g>
   </g>
  </g>
  <g id="axes_3">
   <g id="patch_12">
    <path d="M 54 756 
L 388.8 756 
L 388.8 564.141176 
L 54 564.141176 
z
" style="fill:#ffffff;"/>
   </g>
   <g id="matplotlib.axis_5">
    <g id="xtick_13">
     <g id="line2d_29">
      <g>
       <use style="stroke:#000000;stroke-width:0.8;" x="54" xlink:href="#m178addf747" y="756"/>
      </g>
     </g>
     <g id="text_29">
      <!-- 0.00 -->
      <g transform="translate(42.867188 770.598438)scale(0.1 -0.1)">
       <use xlink:href="#DejaVuSans-48"/>
       <use x="63.623047" xlink:href="#DejaVuSans-46"/>
       <use x="95.410156" xlink:href="#DejaVuSans-48"/>
       <use x="159.033203" xlink:href="#DejaVuSans-48"/>
      </g>
     </g>
    </g>
    <g id="xtick_14">
     <g id="line2d_30">
      <g>
       <use style="stroke:#000000;stroke-width:0.8;" x="120.96" xlink:href="#m178addf747" y="756"/>
      </g>
     </g>
     <g id="text_30">
      <!-- 0.01 -->
      <g transform="translate(109.827188 770.598438)scale(0.1 -0.1)">
       <use xlink:href="#DejaVuSans-48"/>
       <use x="63.623047" xlink:href="#DejaVuSans-46"/>
       <use x="95.410156" xlink:href="#DejaVuSans-48"/>
       <use x="159.033203" xlink:href="#DejaVuSans-49"/>
      </g>
     </g>
    </g>
    <g id="xtick_15">
     <g id="line2d_31">
      <g>
       <use style="stroke:#000000;stroke-width:0.8;" x="187.92" xlink:href="#m178addf747" y="756"/>
      </g>
     </g>
     <g id="text_31">
      <!-- 0.02 -->
      <g transform="translate(176.787188 770.598438)scale(0.1 -0.1)">
       <use xlink:href="#DejaVuSans-48"/>
       <use x="63.623047" xlink:href="#DejaVuSans-46"/>
       <use x="95.410156" xlink:href="#DejaVuSans-48"/>
       <use x="159.033203" xlink:href="#DejaVuSans-50"/>
      </g>
     </g>
    </g>
    <g id="xtick_16">
     <g id="line2d_32">
      <g>
       <use style="stroke:#000000;stroke-width:0.8;" x="254.88" xlink:href="#m178addf747" y="756"/>
      </g>
     </g>
     <g id="text_32">
      <!-- 0.03 -->
      <g transform="translate(243.747187 770.598438)scale(0.1 -0.1)">
       <use xlink:href="#DejaVuSans-48"/>
       <use x="63.623047" xlink:href="#DejaVuSans-46"/>
       <use x="95.410156" xlink:href="#DejaVuSans-48"/>
       <use x="159.033203" xlink:href="#DejaVuSans-51"/>
      </g>
     </g>
    </g>
    <g id="xtick_17">
     <g id="line2d_33">
      <g>
       <use style="stroke:#000000;stroke-width:0.8;" x="321.84" xlink:href="#m178addf747" y="756"/>
      </g>
     </g>
     <g id="text_33">
      <!-- 0.04 -->
      <g transform="translate(310.707188 770.598438)scale(0.1 -0.1)">
       <use xlink:href="#DejaVuSans-48"/>
       <use x="63.623047" xlink:href="#DejaVuSans-46"/>
       <use x="95.410156" xlink:href="#DejaVuSans-48"/>
       <use x="159.033203" xlink:href="#DejaVuSans-52"/>
      </g>
     </g>
    </g>
    <g id="xtick_18">
     <g id="line2d_34">
      <g>
       <use style="stroke:#000000;stroke-width:0.8;" x="388.8" xlink:href="#m178addf747" y="756"/>
      </g>
     </g>
     <g id="text_34">
      <!-- 0.05 -->
      <g transform="translate(377.667188 770.598438)scale(0.1 -0.1)">
       <use xlink:href="#DejaVuSans-48"/>
       <use x="63.623047" xlink:href="#DejaVuSans-46"/>
       <use x="95.410156" xlink:href="#DejaVuSans-48"/>
       <use x="159.033203" xlink:href="#DejaVuSans-53"/>
      </g>
     </g>
    </g>
   </g>
   <g id="matplotlib.axis_6">
    <g id="ytick_15">
     <g id="line2d_35">
      <g>
       <use style="stroke:#000000;stroke-width:0.8;" x="54" xlink:href="#m1c841eef20" y="756"/>
      </g>
     </g>
     <g id="text_35">
      <!-- 0 -->
      <g transform="translate(40.6375 759.799219)scale(0.1 -0.1)">
       <use xlink:href="#DejaVuSans-48"/>
      </g>
     </g>
    </g>
    <g id="ytick_16">
     <g id="line2d_36">
      <g>
       <use style="stroke:#000000;stroke-width:0.8;" x="54" xlink:href="#m1c841eef20" y="724.023529"/>
      </g>
     </g>
     <g id="text_36">
      <!-- 1 -->
      <g transform="translate(40.6375 727.822748)scale(0.1 -0.1)">
       <use xlink:href="#DejaVuSans-49"/>
      </g>
     </g>
    </g>
    <g id="ytick_17">
     <g id="line2d_37">
      <g>
       <use style="stroke:#000000;stroke-width:0.8;" x="54" xlink:href="#m1c841eef20" y="692.047059"/>
      </g>
     </g>
     <g id="text_37">
      <!-- 2 -->
      <g transform="translate(40.6375 695.846278)scale(0.1 -0.1)">
       <use xlink:href="#DejaVuSans-50"/>
      </g>
     </g>
    </g>
    <g id="ytick_18">
     <g id="line2d_38">
      <g>
       <use style="stroke:#000000;stroke-width:0.8;" x="54" xlink:href="#m1c841eef20" y="660.070588"/>
      </g>
     </g>
     <g id="text_38">
      <!-- 3 -->
      <g transform="translate(40.6375 663.869807)scale(0.1 -0.1)">
       <use xlink:href="#DejaVuSans-51"/>
      </g>
     </g>
    </g>
    <g id="ytick_19">
     <g id="line2d_39">
      <g>
       <use style="stroke:#000000;stroke-width:0.8;" x="54" xlink:href="#m1c841eef20" y="628.094118"/>
      </g>
     </g>
     <g id="text_39">
      <!-- 4 -->
      <g transform="translate(40.6375 631.893336)scale(0.1 -0.1)">
       <use xlink:href="#DejaVuSans-52"/>
      </g>
     </g>
    </g>
    <g id="ytick_20">
     <g id="line2d_40">
      <g>
       <use style="stroke:#000000;stroke-width:0.8;" x="54" xlink:href="#m1c841eef20" y="596.117647"/>
      </g>
     </g>
     <g id="text_40">
      <!-- 5 -->
      <g transform="translate(40.6375 599.916866)scale(0.1 -0.1)">
       <use xlink:href="#DejaVuSans-53"/>
      </g>
     </g>
    </g>
    <g id="ytick_21">
     <g id="line2d_41">
      <g>
       <use style="stroke:#000000;stroke-width:0.8;" x="54" xlink:href="#m1c841eef20" y="564.141176"/>
      </g>
     </g>
     <g id="text_41">
      <!-- 6 -->
      <g transform="translate(40.6375 567.940395)scale(0.1 -0.1)">
       <use xlink:href="#DejaVuSans-54"/>
      </g>
     </g>
    </g>
   </g>
   <g id="line2d_42">
    <path clip-path="url(#pa448d3cdcd)" d="M 54 630.200915 
L 54.6696 632.18001 
L 55.3392 629.661653 
L 56.0088 623.17908 
L 58.0176 595.99832 
L 58.6872 590.682975 
L 59.3568 589.457274 
L 60.0264 592.514229 
L 60.696 599.253718 
L 62.0352 618.857328 
L 63.3744 637.957147 
L 64.044 645.258312 
L 64.7136 650.856407 
L 65.3832 655.009831 
L 66.0528 658.08339 
L 66.7224 660.377151 
L 67.392 662.033358 
L 68.0616 663.043379 
L 68.7312 663.33886 
L 69.4008 662.921964 
L 70.74 660.923486 
L 71.4096 660.365237 
L 72.0792 660.983283 
L 72.7488 663.370741 
L 73.4184 667.882651 
L 74.088 674.538841 
L 75.4272 692.668472 
L 76.7664 712.375409 
L 77.436 720.847565 
L 78.1056 727.537575 
L 78.7752 731.981486 
L 79.4448 733.837413 
L 80.1144 732.852886 
L 80.784 728.85258 
L 81.4536 721.761407 
L 82.1232 711.658945 
L 82.7928 698.843641 
L 84.132 667.573258 
L 85.4712 635.058231 
L 86.1408 620.918105 
L 86.8104 609.303616 
L 87.48 600.693355 
L 88.1496 595.243543 
L 88.8192 592.837921 
L 89.4888 593.184579 
L 90.1584 595.923699 
L 90.828 600.708944 
L 91.4976 607.237136 
L 92.8368 624.327656 
L 94.8456 653.082241 
L 95.5152 660.754905 
L 96.1848 666.252409 
L 96.8544 669.114925 
L 97.524 669.242263 
L 98.1936 666.945616 
L 98.8632 662.912746 
L 100.2024 653.524423 
L 100.872 650.162736 
L 101.5416 648.725297 
L 102.2112 649.610917 
L 102.8808 652.888916 
L 103.5504 658.353122 
L 104.22 665.613471 
L 105.5592 683.597748 
L 107.568 712.102993 
L 108.2376 720.120483 
L 108.9072 726.519392 
L 109.5768 730.732352 
L 110.2464 732.227258 
L 110.916 730.582187 
L 111.5856 725.561419 
L 112.2552 717.173601 
L 112.9248 705.698217 
L 114.264 675.859824 
L 116.2728 626.950213 
L 116.9424 613.271059 
L 117.612 602.210765 
L 118.2816 594.281395 
L 118.9512 589.759568 
L 119.6208 588.671435 
L 120.2904 590.798575 
L 120.96 595.706194 
L 121.6296 602.792156 
L 122.9688 620.648568 
L 124.308 638.750309 
L 124.9776 646.47023 
L 125.6472 652.812864 
L 126.3168 657.597553 
L 126.9864 660.78754 
L 127.656 662.480279 
L 128.3256 662.896467 
L 128.9952 662.366105 
L 130.3344 660.191511 
L 131.004 659.499648 
L 131.6736 659.664082 
L 132.3432 661.015586 
L 133.0128 663.742058 
L 133.6824 667.871628 
L 134.352 673.284367 
L 135.6912 686.966977 
L 138.3696 716.955983 
L 139.0392 722.957874 
L 139.7088 727.446761 
L 140.3784 729.833457 
L 141.048 729.520091 
L 141.7176 726.003633 
L 142.3872 718.997582 
L 143.0568 708.538796 
L 143.7264 695.045615 
L 147.0744 616.001878 
L 147.744 605.060625 
L 148.4136 597.173929 
L 149.0832 592.375996 
L 149.7528 590.508043 
L 150.4224 591.316831 
L 151.092 594.526512 
L 151.7616 599.861821 
L 152.4312 607.021785 
L 153.7704 625.152671 
L 155.1096 644.226112 
L 155.7792 652.223877 
L 156.4488 658.286392 
L 157.1184 662.018539 
L 157.788 663.36493 
L 158.4576 662.62218 
L 159.1272 660.37305 
L 160.4664 654.342283 
L 161.136 651.957267 
L 161.8056 650.655857 
L 162.4752 650.688989 
L 163.1448 652.156173 
L 163.8144 655.078784 
L 164.484 659.461769 
L 165.1536 665.313658 
L 165.8232 672.613727 
L 167.1624 690.881364 
L 168.5016 710.820837 
L 169.1712 719.438822 
L 169.8408 725.941249 
L 170.5104 729.579191 
L 171.18 729.902329 
L 171.8496 726.828888 
L 172.5192 720.628634 
L 173.1888 711.826704 
L 174.528 688.946343 
L 179.2152 599.870855 
L 179.8848 592.316188 
L 180.5544 588.065774 
L 181.224 587.508508 
L 181.8936 590.624677 
L 182.5632 596.948749 
L 183.9024 615.598017 
L 185.2416 635.043442 
L 185.9112 642.866502 
L 186.5808 648.840613 
L 187.2504 652.919082 
L 187.92 655.277279 
L 188.5896 656.209688 
L 189.2592 656.045772 
L 189.9288 655.10821 
L 191.9376 651.01885 
L 192.6072 650.592449 
L 193.2768 651.436972 
L 193.9464 654.001888 
L 194.616 658.5922 
L 195.2856 665.283756 
L 195.9552 673.876407 
L 199.3032 723.509429 
L 199.9728 729.520848 
L 200.6424 732.822251 
L 201.312 733.095388 
L 201.9816 730.180172 
L 202.6512 724.086017 
L 203.3208 715.012985 
L 203.9904 703.371715 
L 205.3296 675.042947 
L 206.6688 645.633042 
L 208.008 621.286682 
L 208.6776 612.054201 
L 209.3472 604.848042 
L 210.0168 599.535266 
L 210.6864 595.989814 
L 211.356 594.205989 
L 212.0256 594.347715 
L 212.6952 596.707222 
L 213.3648 601.577566 
L 214.0344 609.075761 
L 214.704 618.975733 
L 217.3824 664.15725 
L 218.052 670.699092 
L 218.7216 673.637437 
L 219.3912 673.097671 
L 220.0608 669.836534 
L 221.4 660.176922 
L 222.0696 656.428966 
L 222.7392 654.704365 
L 223.4088 655.371811 
L 224.0784 658.295237 
L 224.748 662.966656 
L 226.7568 681.074872 
L 229.4352 704.068236 
L 230.7744 714.320175 
L 231.444 718.18544 
L 232.1136 720.466895 
L 232.7832 720.598348 
L 233.4528 718.12385 
L 234.1224 712.763261 
L 234.792 704.442457 
L 235.4616 693.298737 
L 236.8008 664.141228 
L 238.8096 614.870813 
L 239.4792 601.396562 
L 240.1488 591.427906 
L 240.8184 585.90463 
L 241.488 585.309393 
L 242.1576 589.527626 
L 242.8272 597.813574 
L 244.1664 621.169219 
L 245.5056 643.253067 
L 246.1752 650.97498 
L 246.8448 656.051511 
L 247.5144 658.852175 
L 248.184 660.087707 
L 248.8536 660.544032 
L 249.5232 660.834988 
L 251.532 662.050977 
L 252.2016 661.902851 
L 252.8712 661.232029 
L 253.5408 660.313239 
L 254.2104 659.769823 
L 254.88 660.440165 
L 255.5496 663.142243 
L 256.2192 668.411485 
L 256.8888 676.298381 
L 258.228 697.413972 
L 259.5672 718.048062 
L 260.2368 725.382107 
L 260.9064 729.901879 
L 261.576 731.559506 
L 262.2456 730.648435 
L 262.9152 727.595878 
L 263.5848 722.746467 
L 264.2544 716.217109 
L 264.924 707.876244 
L 265.5936 697.455539 
L 266.2632 684.754102 
L 267.6024 653.312648 
L 268.9416 619.65588 
L 269.6112 605.389522 
L 270.2808 594.604493 
L 270.9504 588.118927 
L 271.62 586.127444 
L 272.2896 588.195401 
L 272.9592 593.404423 
L 274.2984 608.670768 
L 275.6376 624.382637 
L 276.9768 637.895903 
L 278.316 649.707857 
L 278.9856 654.864547 
L 279.6552 659.123831 
L 280.3248 662.096183 
L 280.9944 663.502984 
L 281.664 663.322933 
L 282.3336 661.869447 
L 283.6728 657.841776 
L 284.3424 656.926722 
L 285.012 657.694166 
L 285.6816 660.511545 
L 286.3512 665.391909 
L 287.0208 672.034491 
L 288.36 688.514676 
L 290.3688 713.460725 
L 291.0384 720.249167 
L 291.708 725.637119 
L 292.3776 729.110273 
L 293.0472 730.062856 
L 293.7168 727.888407 
L 294.3864 722.125217 
L 295.056 712.614636 
L 295.7256 699.620885 
L 297.0648 666.475823 
L 298.404 632.187384 
L 299.0736 617.813819 
L 299.7432 606.455874 
L 300.4128 598.447852 
L 301.0824 593.708228 
L 301.752 591.860085 
L 302.4216 592.396795 
L 303.0912 594.839978 
L 303.7608 598.842986 
L 304.4304 604.213683 
L 305.1 610.858083 
L 306.4392 627.429251 
L 308.448 654.1108 
L 309.1176 660.733263 
L 309.7872 665.134881 
L 310.4568 667.054246 
L 311.1264 666.630339 
L 311.796 664.397111 
L 313.1352 657.994365 
L 313.8048 655.754994 
L 314.4744 655.223495 
L 315.144 656.845455 
L 315.8136 660.725541 
L 316.4832 666.661383 
L 317.8224 682.875377 
L 319.8312 709.736852 
L 320.5008 717.34726 
L 321.1704 723.552111 
L 321.84 727.92921 
L 322.5096 730.069259 
L 323.1792 729.611372 
L 323.8488 726.300096 
L 324.5184 720.048102 
L 325.188 710.984951 
L 326.5272 686.097301 
L 329.2056 629.176595 
L 329.8752 617.699131 
L 330.5448 608.340478 
L 331.2144 601.339341 
L 331.884 596.804577 
L 332.5536 594.745261 
L 333.2232 595.093969 
L 333.8928 597.716776 
L 334.5624 602.409774 
L 335.232 608.887538 
L 336.5712 625.591263 
L 338.58 651.926613 
L 339.2496 658.701336 
L 339.9192 663.654111 
L 340.5888 666.506 
L 341.2584 667.182976 
L 341.928 665.839973 
L 342.5976 662.863274 
L 344.6064 650.808453 
L 345.276 648.457585 
L 345.9456 648.215457 
L 346.6152 650.584661 
L 347.2848 655.768806 
L 347.9544 663.624706 
L 349.2936 685.089189 
L 350.6328 708.069579 
L 351.3024 717.536231 
L 351.972 724.477217 
L 352.6416 728.316839 
L 353.3112 728.782073 
L 353.9808 725.894605 
L 354.6504 719.923321 
L 355.32 711.313043 
L 356.6592 688.387825 
L 360.0072 623.628735 
L 360.6768 613.46645 
L 361.3464 605.31821 
L 362.016 599.556717 
L 362.6856 596.447939 
L 363.3552 596.112516 
L 364.0248 598.497435 
L 364.6944 603.364604 
L 365.364 610.299675 
L 366.7032 628.025131 
L 368.0424 646.315603 
L 368.712 654.032786 
L 369.3816 660.134789 
L 370.0512 664.343055 
L 370.7208 666.587423 
L 371.3904 667.008289 
L 372.06 665.935004 
L 372.7296 663.842659 
L 374.0688 658.868536 
L 374.7384 657.108772 
L 375.408 656.459403 
L 376.0776 657.238747 
L 376.7472 659.624039 
L 377.4168 663.654234 
L 378.0864 669.243063 
L 379.4256 684.218766 
L 382.104 718.283457 
L 382.7736 724.53237 
L 383.4432 728.687993 
L 384.1128 730.245184 
L 384.7824 728.842709 
L 385.452 724.314711 
L 386.1216 716.722244 
L 386.7912 706.357898 
L 388.1304 679.475603 
L 389.4696 649.217521 
L 389.4696 649.217521 
" style="fill:none;stroke:#1f77b4;stroke-linecap:square;stroke-width:1.5;"/>
   </g>
   <g id="patch_13">
    <path d="M 54 756 
L 54 564.141176 
" style="fill:none;stroke:#000000;stroke-linecap:square;stroke-linejoin:miter;stroke-width:0.8;"/>
   </g>
   <g id="patch_14">
    <path d="M 388.8 756 
L 388.8 564.141176 
" style="fill:none;stroke:#000000;stroke-linecap:square;stroke-linejoin:miter;stroke-width:0.8;"/>
   </g>
   <g id="patch_15">
    <path d="M 54 756 
L 388.8 756 
" style="fill:none;stroke:#000000;stroke-linecap:square;stroke-linejoin:miter;stroke-width:0.8;"/>
   </g>
   <g id="patch_16">
    <path d="M 54 564.141176 
L 388.8 564.141176 
" style="fill:none;stroke:#000000;stroke-linecap:square;stroke-linejoin:miter;stroke-width:0.8;"/>
   </g>
   <g id="text_42">
    <!-- 1000 or more cut -->
    <g transform="translate(169.27875 558.141176)scale(0.12 -0.12)">
     <use xlink:href="#DejaVuSans-49"/>
     <use x="63.623047" xlink:href="#DejaVuSans-48"/>
     <use x="127.246094" xlink:href="#DejaVuSans-48"/>
     <use x="190.869141" xlink:href="#DejaVuSans-48"/>
     <use x="254.492188" xlink:href="#DejaVuSans-32"/>
     <use x="286.279297" xlink:href="#DejaVuSans-111"/>
     <use x="347.460938" xlink:href="#DejaVuSans-114"/>
     <use x="388.574219" xlink:href="#DejaVuSans-32"/>
     <use x="420.361328" xlink:href="#DejaVuSans-109"/>
     <use x="517.773438" xlink:href="#DejaVuSans-111"/>
     <use x="578.955078" xlink:href="#DejaVuSans-114"/>
     <use x="617.818359" xlink:href="#DejaVuSans-101"/>
     <use x="679.341797" xlink:href="#DejaVuSans-32"/>
     <use x="711.128906" xlink:href="#DejaVuSans-99"/>
     <use x="766.109375" xlink:href="#DejaVuSans-117"/>
     <use x="829.488281" xlink:href="#DejaVuSans-116"/>
    </g>
   </g>
  </g>
 </g>
 <defs>
  <clipPath id="p215781e884">
   <rect height="191.858824" width="334.8" x="54" y="103.68"/>
  </clipPath>
  <clipPath id="pb6eef8ce4a">
   <rect height="191.858824" width="334.8" x="54" y="333.910588"/>
  </clipPath>
  <clipPath id="pa448d3cdcd">
   <rect height="191.858824" width="334.8" x="54" y="564.141176"/>
  </clipPath>
 </defs>
</svg>
